<svg width="20" height="20" viewBox="0 0 20 20" fill="none" xmlns="http://www.w3.org/2000/svg">
<path d="M9.99992 3.87187C11.9959 3.87187 12.2326 3.87935 13.0213 3.91548C15.0471 4.00768 15.9934 4.9689 16.0856 6.97982C16.1217 7.76786 16.1286 8.00458 16.1286 10.0005C16.1286 11.9971 16.1211 12.2332 16.0856 13.0213C15.9928 15.0303 15.049 15.9934 13.0213 16.0856C12.2326 16.1217 11.9971 16.1292 9.99992 16.1292C8.00396 16.1292 7.76723 16.1217 6.97919 16.0856C4.94835 15.9928 4.00706 15.0272 3.91486 13.0206C3.87873 12.2326 3.87125 11.9965 3.87125 9.99992C3.87125 8.00396 3.87935 7.76786 3.91486 6.97919C4.00768 4.9689 4.95146 4.00706 6.97919 3.91486C7.76786 3.87935 8.00396 3.87187 9.99992 3.87187ZM9.99992 2.52441C7.9697 2.52441 7.71553 2.53314 6.91814 2.56927C4.20329 2.69386 2.69448 4.20017 2.56989 6.91752C2.53314 7.71553 2.52441 7.9697 2.52441 9.99992C2.52441 12.0301 2.53314 12.2849 2.56927 13.0823C2.69386 15.7972 4.20017 17.306 6.91752 17.4306C7.71553 17.4667 7.9697 17.4754 9.99992 17.4754C12.0301 17.4754 12.2849 17.4667 13.0823 17.4306C15.7947 17.306 17.3072 15.7997 17.4299 13.0823C17.4667 12.2849 17.4754 12.0301 17.4754 9.99992C17.4754 7.9697 17.4667 7.71553 17.4306 6.91814C17.3085 4.20578 15.8003 2.69448 13.0829 2.56989C12.2849 2.53314 12.0301 2.52441 9.99992 2.52441V2.52441ZM9.99992 6.16125C7.87999 6.16125 6.16125 7.87999 6.16125 9.99992C6.16125 12.1198 7.87999 13.8392 9.99992 13.8392C12.1198 13.8392 13.8386 12.1205 13.8386 9.99992C13.8386 7.87999 12.1198 6.16125 9.99992 6.16125ZM9.99992 12.4918C8.6238 12.4918 7.50808 11.3767 7.50808 9.99992C7.50808 8.6238 8.6238 7.50808 9.99992 7.50808C11.376 7.50808 12.4918 8.6238 12.4918 9.99992C12.4918 11.3767 11.376 12.4918 9.99992 12.4918ZM13.9906 5.11281C13.4947 5.11281 13.0929 5.51462 13.0929 6.00987C13.0929 6.50512 13.4947 6.90693 13.9906 6.90693C14.4858 6.90693 14.887 6.50512 14.887 6.00987C14.887 5.51462 14.4858 5.11281 13.9906 5.11281Z" fill="#8BAC3E"/>
</svg>
